<svg xmlns="http://www.w3.org/2000/svg" width="64" height="64" version="1">
 <rect style="opacity:0.2" width="55" height="10" x="5" y="-60" rx="1.41" transform="rotate(90)"/>
 <rect style="fill:#2b50a1" width="55" height="10" x="4" y="-60" rx="1.41" transform="rotate(90)"/>
 <rect style="fill:#2b50a1" width="55" height="10" x="4" y="-14" rx="1.41" transform="rotate(90)"/>
 <rect style="fill:#2b50a1" width="55" height="10" x="4" y="-33" rx="1.41" transform="rotate(90)"/>
 <path style="opacity:0.2" d="M 5.3808594,5 C 4.6158118,5 4,5.6158118 4,6.3808594 V 13.619141 C 4,14.384188 4.6158118,15 5.3808594,15 H 31.619141 C 32.384188,15 33,14.384188 33,13.619141 V 6.3808594 C 33,5.6158118 32.384188,5 31.619141,5 Z M 40.400391,5 C 39.624791,5 39,5.6247906 39,6.4003906 V 13.599609 C 39,14.375209 39.624791,15 40.400391,15 H 58.599609 C 59.375209,15 60,14.375209 60,13.599609 V 6.4003906 C 60,5.6247906 59.375209,5 58.599609,5 Z M 5.3808594,50 C 4.6158118,50 4,50.615812 4,51.380859 v 7.238282 C 4,59.384188 4.6158118,60 5.3808594,60 H 31.619141 C 32.384188,60 33,59.384188 33,58.619141 V 51.380859 C 33,50.615812 32.384188,50 31.619141,50 Z"/>
 <rect style="fill:#3a6be0" width="29" height="10" x="4" y="4" rx="1.381"/>
 <rect style="fill:#3a6be0" width="21" height="10" x="39" y="4" rx="1.4"/>
 <rect style="fill:#3a6be0" width="29" height="10" x="4" y="49" rx="1.381"/>
 <path style="fill:#ffffff;opacity:0.1" d="M 5.3808594 4 C 4.6158118 4 4 4.6158118 4 5.3808594 L 4 6.3808594 C 4 5.6158118 4.6158118 5 5.3808594 5 L 31.619141 5 C 32.384188 5 33 5.6158118 33 6.3808594 L 33 5.3808594 C 33 4.6158118 32.384188 4 31.619141 4 L 5.3808594 4 z M 40.400391 4 C 39.624791 4 39 4.6247906 39 5.4003906 L 39 6.4003906 C 39 5.6247906 39.624791 5 40.400391 5 L 58.599609 5 C 59.375209 5 60 5.6247906 60 6.4003906 L 60 5.4003906 C 60 4.6247906 59.375209 4 58.599609 4 L 40.400391 4 z M 5.3808594 49 C 4.6158118 49 4 49.615812 4 50.380859 L 4 51.380859 C 4 50.615812 4.6158118 50 5.3808594 50 L 31.619141 50 C 32.384188 50 33 50.615812 33 51.380859 L 33 50.380859 C 33 49.615812 32.384188 49 31.619141 49 L 5.3808594 49 z"/>
</svg>
