<?xml version="1.0" encoding="UTF-8" standalone="no"?>
<!-- Created with Inkscape (http://www.inkscape.org/) -->

<svg
   width="640mm"
   height="400mm"
   viewBox="0 0 2418.8977 1511.811"
   version="1.1"
   id="svg1"
   xml:space="preserve"
   inkscape:version="1.4 (86a8ad7, 2024-10-11)"
   sodipodi:docname="splash_background.svg"
   inkscape:export-filename="..\..\main\romfs\splash_text.png"
   inkscape:export-xdpi="25.4"
   inkscape:export-ydpi="25.4"
   xmlns:inkscape="http://www.inkscape.org/namespaces/inkscape"
   xmlns:sodipodi="http://sodipodi.sourceforge.net/DTD/sodipodi-0.dtd"
   xmlns:xlink="http://www.w3.org/1999/xlink"
   xmlns="http://www.w3.org/2000/svg"
   xmlns:svg="http://www.w3.org/2000/svg"><sodipodi:namedview
     id="namedview1"
     pagecolor="#505050"
     bordercolor="#ffffff"
     borderopacity="1"
     inkscape:showpageshadow="0"
     inkscape:pageopacity="0"
     inkscape:pagecheckerboard="1"
     inkscape:deskcolor="#505050"
     inkscape:document-units="mm"
     inkscape:zoom="0.25"
     inkscape:cx="-428"
     inkscape:cy="1558"
     inkscape:window-width="2560"
     inkscape:window-height="1369"
     inkscape:window-x="2552"
     inkscape:window-y="-8"
     inkscape:window-maximized="1"
     inkscape:current-layer="layer1" /><defs
     id="defs1"><linearGradient
       id="swatch98"
       inkscape:swatch="solid"><stop
         style="stop-color:#0f0f0f;stop-opacity:1;"
         offset="0"
         id="stop98" /></linearGradient><inkscape:path-effect
       effect="fillet_chamfer"
       id="path-effect98"
       is_visible="true"
       lpeversion="1"
       nodesatellites_param="F,0,0,1,0,10.054167,0,1 @ F,0,0,1,0,10.054167,0,1 @ F,0,0,1,0,10.054167,0,1 @ F,0,0,1,0,10.054167,0,1"
       radius="38"
       unit="px"
       method="auto"
       mode="F"
       chamfer_steps="1"
       flexible="false"
       use_knot_distance="true"
       apply_no_radius="true"
       apply_with_radius="true"
       only_selected="false"
       hide_knots="false" /><filter
       id="selectable_hidder_filter"
       width="1"
       height="1"
       x="0"
       y="0"
       style="color-interpolation-filters:sRGB;"
       inkscape:label="LPE boolean visibility"><feComposite
         id="boolops_hidder_primitive"
         result="composite1"
         operator="arithmetic"
         in2="SourceGraphic"
         in="BackgroundImage" /></filter><inkscape:path-effect
       effect="bool_op"
       operand-path=""
       id="path-effect97"
       is_visible="true"
       lpeversion="1"
       operation="diff"
       swap-operands="false"
       filltype-this="from-curve"
       filter=""
       filltype-operand="from-curve" /><rect
       x="62"
       y="270"
       width="2296"
       height="1214"
       id="rect64" /><rect
       x="66"
       y="276"
       width="2292"
       height="1208"
       id="rect63" /><rect
       x="1842.7203"
       y="1565.5344"
       width="316.78384"
       height="106.06602"
       id="rect62" /><rect
       x="69.296464"
       y="275.77164"
       width="1781.9091"
       height="1291.1769"
       id="rect61" /><rect
       x="162.63456"
       y="388.90873"
       width="705.69256"
       height="634.98189"
       id="rect60" /><rect
       x="180"
       y="388"
       width="2132"
       height="1052"
       id="rect59" /><inkscape:path-effect
       effect="fillet_chamfer"
       id="path-effect44"
       is_visible="true"
       lpeversion="1"
       nodesatellites_param="F,0,0,1,0,79.375,0,1 @ F,0,0,1,0,79.375,0,1 @ F,0,0,1,0,0,0,1 @ F,0,0,1,0,0,0,1"
       radius="300"
       unit="px"
       method="auto"
       mode="F"
       chamfer_steps="1"
       flexible="false"
       use_knot_distance="true"
       apply_no_radius="true"
       apply_with_radius="true"
       only_selected="true"
       hide_knots="true" /><linearGradient
       id="linearGradient43"
       inkscape:collect="always"><stop
         style="stop-color:#0f0f0f;stop-opacity:1;"
         offset="0"
         id="stop43" /><stop
         style="stop-color:#1e1e1e;stop-opacity:1;"
         offset="1"
         id="stop44" /></linearGradient><linearGradient
       id="swatch2"><stop
         style="stop-color:#0f0f0f;stop-opacity:1;"
         offset="0"
         id="stop2" /><stop
         style="stop-color:#242424;stop-opacity:1;"
         offset="1"
         id="stop36" /></linearGradient><filter
       style="color-interpolation-filters:sRGB"
       inkscape:label="Drop Shadow"
       id="filter30"
       x="-0.037258735"
       y="-0.14521736"
       width="1.0745175"
       height="1.2904347"><feFlood
         result="flood"
         in="SourceGraphic"
         flood-opacity="0.564706"
         flood-color="rgb(0,0,0)"
         id="feFlood29" /><feGaussianBlur
         result="blur"
         in="SourceGraphic"
         stdDeviation="2.000000"
         id="feGaussianBlur29" /><feOffset
         result="offset"
         in="blur"
         dx="0.000000"
         dy="0.000000"
         id="feOffset29" /><feComposite
         result="comp1"
         operator="in"
         in="flood"
         in2="offset"
         id="feComposite29" /><feComposite
         result="comp2"
         operator="over"
         in="SourceGraphic"
         in2="comp1"
         id="feComposite30" /></filter><linearGradient
       inkscape:collect="always"
       xlink:href="#linearGradient43"
       id="linearGradient42"
       x1="1206"
       y1="270"
       x2="1200"
       y2="1472"
       gradientUnits="userSpaceOnUse" /><filter
       style="color-interpolation-filters:sRGB"
       inkscape:label="Drop Shadow"
       id="filter59"
       x="-0.012756133"
       y="-0.026332242"
       width="1.0255123"
       height="1.0526645"><feFlood
         result="flood"
         in="SourceGraphic"
         flood-opacity="0.666667"
         flood-color="rgb(0,0,0)"
         id="feFlood58" /><feGaussianBlur
         result="blur"
         in="SourceGraphic"
         stdDeviation="12.158054"
         id="feGaussianBlur58" /><feOffset
         result="offset"
         in="blur"
         dx="0.000000"
         dy="0.000000"
         id="feOffset58" /><feComposite
         result="comp1"
         operator="in"
         in="flood"
         in2="offset"
         id="feComposite58" /><feComposite
         result="comp2"
         operator="over"
         in="SourceGraphic"
         in2="comp1"
         id="feComposite59" /></filter><filter
       style="color-interpolation-filters:sRGB;"
       inkscape:label="Drop Shadow"
       id="filter75"
       x="-0.016471853"
       y="-0.044732543"
       width="1.0329437"
       height="1.0894651"><feFlood
         result="flood"
         in="SourceGraphic"
         flood-opacity="0.682353"
         flood-color="rgb(0,0,0)"
         id="feFlood74" /><feGaussianBlur
         result="blur"
         in="SourceGraphic"
         stdDeviation="15.197568"
         id="feGaussianBlur74" /><feOffset
         result="offset"
         in="blur"
         dx="0.000000"
         dy="0.000000"
         id="feOffset74" /><feComposite
         result="comp1"
         operator="in"
         in="flood"
         in2="offset"
         id="feComposite74" /><feComposite
         result="comp2"
         operator="over"
         in="SourceGraphic"
         in2="comp1"
         id="feComposite75" /></filter><filter
       style="color-interpolation-filters:sRGB"
       inkscape:label="Drop Shadow"
       id="filter59-3"
       x="-0.012756132"
       y="-0.024253216"
       width="1.0255123"
       height="1.0485064"><feFlood
         result="flood"
         in="SourceGraphic"
         flood-opacity="0.666667"
         flood-color="rgb(0,0,0)"
         id="feFlood58-8" /><feGaussianBlur
         result="blur"
         in="SourceGraphic"
         stdDeviation="12.158054"
         id="feGaussianBlur58-8" /><feOffset
         result="offset"
         in="blur"
         dx="0.000000"
         dy="0.000000"
         id="feOffset58-1" /><feComposite
         result="comp1"
         operator="in"
         in="flood"
         in2="offset"
         id="feComposite58-9" /><feComposite
         result="comp2"
         operator="over"
         in="SourceGraphic"
         in2="comp1"
         id="feComposite59-5" /></filter><inkscape:path-effect
       effect="fillet_chamfer"
       id="path-effect44-1"
       is_visible="true"
       lpeversion="1"
       nodesatellites_param="F,0,0,1,0,79.375,0,1 @ F,0,0,1,0,79.375,0,1 @ F,0,0,1,0,0,0,1 @ F,0,0,1,0,0,0,1"
       radius="300"
       unit="px"
       method="auto"
       mode="F"
       chamfer_steps="1"
       flexible="false"
       use_knot_distance="true"
       apply_no_radius="true"
       apply_with_radius="true"
       only_selected="true"
       hide_knots="true" /><filter
       style="color-interpolation-filters:sRGB;"
       inkscape:label="Drop Shadow"
       id="filter97"
       x="-0.012107699"
       y="-0.15670556"
       width="1.0242154"
       height="1.3134111"><feFlood
         result="flood"
         in="SourceGraphic"
         flood-opacity="0.682353"
         flood-color="rgb(0,0,0)"
         id="feFlood96" /><feGaussianBlur
         result="blur"
         in="SourceGraphic"
         stdDeviation="7.294833"
         id="feGaussianBlur96" /><feOffset
         result="offset"
         in="blur"
         dx="0.000000"
         dy="0.000000"
         id="feOffset96" /><feComposite
         result="comp1"
         operator="in"
         in="flood"
         in2="offset"
         id="feComposite96" /><feComposite
         result="comp2"
         operator="over"
         in="SourceGraphic"
         in2="comp1"
         id="feComposite97" /></filter><linearGradient
       inkscape:collect="always"
       xlink:href="#swatch98"
       id="linearGradient98"
       x1="30.753699"
       y1="703.42469"
       x2="2318.0348"
       y2="703.42469"
       gradientUnits="userSpaceOnUse" /></defs><g
     inkscape:label="Layer 1"
     inkscape:groupmode="layer"
     id="layer1"><path
       style="display:inline;fill:#1e1e1e;fill-opacity:1;fill-rule:nonzero;stroke-width:0.648959;stroke-dasharray:none;filter:url(#filter97)"
       id="rect94"
       width="1445.989"
       height="111.72289"
       x="486.45428"
       y="1370.2775"
       transform="matrix(1.167454,0,0,1.1635567,-202.52697,-253.25459)"
       inkscape:label="Progress"
       inkscape:path-effect="#path-effect98"
       sodipodi:type="rect"
       d="M 496.50845,1370.2775 H 1922.3891 a 10.054167,10.054167 45 0 1 10.0542,10.0541 v 91.6146 a 10.054167,10.054167 135 0 1 -10.0542,10.0542 H 496.50845 a 10.054167,10.054167 45 0 1 -10.05417,-10.0542 v -91.6146 a 10.054167,10.054167 135 0 1 10.05417,-10.0541 z"
       sodipodi:insensitive="true" /><path
       id="rect1"
       style="display:inline;fill:url(#linearGradient42);fill-opacity:1;fill-rule:nonzero;stroke-width:1.00157;stroke-dasharray:none;filter:url(#filter59)"
       inkscape:transform-center-x="-1010"
       inkscape:transform-center-y="387.6443"
       d="M 132.49898,274.99804 A 79.375,79.375 0 0 0 53.123977,354.37147 V 1383.1198 L 2340.5986,1107.9533 V 354.37147 a 79.375,79.375 0 0 0 -79.375,-79.37343 z"
       transform="matrix(1,0,0,0.88909242,12.58696,27.263041)"
       inkscape:label="Background"
       sodipodi:insensitive="true" /><path
       style="font-weight:bold;font-size:45.1556px;line-height:0;font-family:'Product Sans';-inkscape-font-specification:'Product Sans Bold';fill:#d8dbe1;stroke-width:0.264583;filter:url(#filter30)"
       d="M 4.8000003,4.799998 H 10.896007 V 37.131409 H 4.8000003 Z M 16.675894,15.005164 h 5.554139 v 2.889958 h 0.361244 q 1.038579,-1.625601 2.799648,-2.619024 1.806224,-0.993424 3.973693,-0.993424 2.528713,0 4.244626,1.174046 1.715913,1.174046 2.438403,2.889958 1.038579,-1.670757 2.935114,-2.844802 1.896535,-1.219202 4.605871,-1.219202 2.032002,0 3.522137,0.677334 1.490135,0.632179 2.438403,1.806224 0.993423,1.174046 1.490134,2.844803 0.496712,1.625602 0.496712,3.567293 V 37.131409 H 45.620634 V 24.262062 q 0,-4.51556 -3.702759,-4.51556 -1.174046,0 -2.077158,0.541867 -0.903112,0.496712 -1.53529,1.399824 -0.587023,0.857956 -0.948268,2.077158 -0.316089,1.219201 -0.316089,2.619025 V 37.131409 H 31.125686 V 24.262062 q 0,-4.51556 -3.883382,-4.51556 -1.12889,0 -1.986846,0.541867 -0.857956,0.496712 -1.444979,1.399824 -0.587023,0.857956 -0.903112,2.077158 -0.31609,1.219201 -0.31609,2.619025 V 37.131409 H 16.675894 Z M 57.135274,4.799998 H 63.23128 V 17.7145 H 76.823116 V 4.799998 h 6.096007 V 37.131409 H 76.823116 V 23.494417 H 63.23128 v 13.636992 h -6.096006 z m 52.515976,27.00305 q -1.53529,2.709336 -4.15432,4.380093 -2.57387,1.670757 -6.321784,1.670757 -2.528713,0 -4.696182,-0.857956 -2.122313,-0.903112 -3.702759,-2.483558 -1.580446,-1.580446 -2.483558,-3.70276 -0.857957,-2.167468 -0.857957,-4.741338 0,-2.393247 0.857957,-4.51556 0.857956,-2.167469 2.393246,-3.747915 1.535291,-1.625601 3.612449,-2.573869 2.122313,-0.948268 4.651026,-0.948268 2.664182,0 4.741342,0.903112 2.07715,0.857957 3.47698,2.438403 1.39982,1.53529 2.12231,3.657604 0.72249,2.122313 0.72249,4.605871 0,0.316089 0,0.541867 -0.0452,0.270934 -0.0452,0.496712 -0.0452,0.225778 -0.0452,0.496711 H 93.259763 q 0.180622,1.354668 0.722489,2.348092 0.587023,0.948267 1.399824,1.625601 0.857956,0.632179 1.85138,0.948268 0.993423,0.270934 2.032002,0.270934 2.032002,0 3.341512,-0.903112 1.35467,-0.948268 2.12232,-2.348092 z m -5.37352,-8.579565 q -0.0452,-0.587022 -0.4064,-1.309512 -0.31609,-0.72249 -0.99342,-1.354668 -0.63218,-0.632178 -1.62561,-1.038579 -0.94826,-0.4064 -2.302932,-0.4064 -1.896535,0 -3.341514,1.083734 -1.444979,1.083735 -2.032002,3.025425 z m 14.58524,2.664181 -7.58614,-10.8825 h 6.99912 l 4.01884,6.141162 h 0.31609 l 3.79307,-6.141162 h 7.2249 l -7.76676,10.8825 7.76676,11.243745 h -6.95396 l -4.15432,-6.321785 h -0.31609 l -4.01885,6.321785 h -6.99911 z"
       id="text2"
       inkscape:label="Title"
       transform="matrix(9.4457335,0,0,9.4457335,593.66778,30.219531)"
       aria-label="ImHex" /></g><style
     id="style1">
    #text2 { fill:#d8dbe1; }

    @media (prefers-color-scheme: light) {
      #text2 { fill:#121419; }
    }
  </style></svg>
